<svg xmlns="http://www.w3.org/2000/svg" width="150" height="46.602" viewBox="0 0 150 46.602">
  <g id="Business_Insider_logo-0" data-name="Business Insider logo-0" opacity="0.497">
    <path id="Path_3380" data-name="Path 3380" d="M11.627,46.6h3.489V27.961H11.627Zm12.791-.28h3.125V34.561L40.7,46.6V28.241H37.582V39.8L24.418,27.961Zm23.415-4.515A9.6,9.6,0,0,0,53.764,43.9c2.132,0,3.628-.734,3.628-2.355,0-1.413-.954-1.966-2.624-2.585l-2.7-.939c-2.493-.885-4.389-2.179-4.389-5.151,0-3.179,2.87-4.908,6.3-4.908a10.418,10.418,0,0,1,5.517,1.465v3.153a8.846,8.846,0,0,0-5.45-1.943c-1.884,0-3.293.7-3.293,2.17,0,1.325.884,1.855,2.441,2.388L56.2,36.252c2.92,1.027,4.26,2.618,4.26,5.237,0,3.294-2.9,5.113-6.7,5.113a10.917,10.917,0,0,1-5.932-1.582V41.808ZM68.605,46.6h3.488V27.961H68.605Zm19.851-2.821c3.932,0,6.034-2.522,6.034-6.5,0-4.011-2.1-6.524-6.034-6.524H84.568V43.781Zm-7.063-15.82h7.18c5.527,0,9.1,3.641,9.1,9.316S94.1,46.6,88.573,46.6h-7.18Zm33.724,0v2.792h-8.442v4.485h7.571V38h-7.573v5.783h8.444V46.6H103.488V27.961ZM127.5,36.4h3.462c2.049,0,3.2-1.124,3.2-2.853s-1.155-2.854-3.2-2.854H127.5V36.4Zm0,2.636V46.6h-3.08V27.961h6.6c3.763,0,6.2,1.938,6.2,5.588,0,3.121-1.351,4.914-4.231,5.374l6.549,7.679h-3.5l-6.341-7.563H127.5ZM10.408,9.6a4.118,4.118,0,0,0,2.428-4.059C12.836,2.1,10.408.325,6.524.325H0V19.494H7.13c3.884,0,6.312-1.9,6.312-5.495a4.63,4.63,0,0,0-3.033-4.4ZM3.064,8.38V3.135H6.5c2.155,0,3.307.781,3.307,2.591S8.649,8.38,6.5,8.38H3.064Zm0,2.685h4c2.126,0,3.278,1.06,3.278,2.809,0,1.717-1.153,2.811-3.277,2.811h-4V11.064Zm24.613,8.741c4.461,0,7.465-2.685,7.465-7.93V.325H31.986V11.5c0,3.684-1.517,5.4-4.309,5.4s-4.308-1.718-4.308-5.4V.325H20.214V11.844c0,5.276,3.033,7.962,7.464,7.962Zm14.9-1.686a10.408,10.408,0,0,0,5.917,1.686c3.794,0,6.676-1.937,6.676-5.432,0-2.779-1.334-4.465-4.248-5.557l-3-1.124c-1.548-.561-2.428-1.123-2.428-2.528,0-1.561,1.4-2.31,3.277-2.31A8.493,8.493,0,0,1,54.2,4.915V1.573A9.853,9.853,0,0,0,48.7.013c-3.428,0-6.281,1.842-6.281,5.214,0,3.153,1.882,4.526,4.369,5.463l2.7,1c1.669.655,2.61,1.25,2.61,2.748,0,1.717-1.487,2.5-3.612,2.5a9.241,9.241,0,0,1-5.917-2.217v3.4ZM66.441.325H63.287V19.493h3.154Zm9,19.145h3.041V7l12.8,12.767V.3H88.251V12.553L75.444,0ZM111,.329V3.2H102.81V7.813h7.347v2.838H102.81V16.6H111v2.9H99.717V.329Zm7.347,17.777a10.4,10.4,0,0,0,5.917,1.686c3.792,0,6.676-1.935,6.676-5.432,0-2.779-1.335-4.464-4.248-5.557l-3-1.123c-1.548-.562-2.428-1.124-2.428-2.53,0-1.561,1.4-2.31,3.277-2.31A8.5,8.5,0,0,1,129.971,4.9V1.561A9.842,9.842,0,0,0,124.478,0C121.05,0,118.2,1.842,118.2,5.214c0,3.153,1.882,4.526,4.369,5.463l2.7,1c1.669.655,2.61,1.25,2.61,2.748,0,1.717-1.485,2.5-3.612,2.5A9.226,9.226,0,0,1,118.35,14.7v3.4Zm19.057,0a10.408,10.408,0,0,0,5.917,1.686c3.794,0,6.676-1.935,6.676-5.432,0-2.779-1.335-4.464-4.248-5.557l-3-1.123c-1.547-.562-2.428-1.124-2.428-2.53,0-1.561,1.4-2.31,3.277-2.31A8.5,8.5,0,0,1,149.029,4.9V1.561A9.833,9.833,0,0,0,143.537,0c-3.43,0-6.281,1.842-6.281,5.214,0,3.153,1.882,4.526,4.369,5.463l2.7,1c1.669.655,2.61,1.25,2.61,2.748,0,1.717-1.487,2.5-3.612,2.5a9.233,9.233,0,0,1-5.917-2.217v3.4Z" fill="#333" fill-rule="evenodd"/>
  </g>
</svg>
