<svg xmlns="http://www.w3.org/2000/svg" xmlns:xlink="http://www.w3.org/1999/xlink" width="92.365" height="55.84" viewBox="0 0 92.365 55.84">
  <defs>
    <clipPath id="clip-path">
      <rect id="Rectangle_5309" data-name="Rectangle 5309" width="92.365" height="55.84" fill="none"/>
    </clipPath>
  </defs>
  <g id="Group_4766" data-name="Group 4766" transform="translate(0 0)" opacity="0.504">
    <path id="Path_3458" data-name="Path 3458" d="M27.559,0v5.81h3.232v13.56H27.559v5.4H44.793v-5.4H41.562V5.809h3.231V0Z" transform="translate(-16.791 0)"/>
    <g id="Group_4765" data-name="Group 4765" transform="translate(0 0)">
      <g id="Group_4764" data-name="Group 4764" clip-path="url(#clip-path)">
        <path id="Path_3459" data-name="Path 3459" d="M89.258,33.842v-5.4h2.5V22.791c0-1.7-1.216-2.467-2.78-2.467a3.37,3.37,0,0,0-3.474,3.439v4.68h2.571v5.4H74.6v-5.4h2.432V20.3H74.6V14.9H85.228v3.727a3.457,3.457,0,0,0,.486-.521A8.61,8.61,0,0,1,92.8,15.078c4.1,0,7.436,1.668,7.436,6.219v7.143h2.188v5.4Z" transform="translate(-45.45 -9.075)"/>
        <path id="Path_3460" data-name="Path 3460" d="M166.041,23.062l-7.276.8c-.086-2.018-.5-4.155-2.965-4.155-3.127,0-3.371,2.606-3.371,5.108v.054c0,2.5.243,5.107,3.37,5.107a2.83,2.83,0,0,0,3.09-2.931l.237,0,7.009,0-.059.626c-1.2,5.893-6.514,6.815-10.346,6.815-6.011,0-11.918-2.954-11.918-9.66v.018c0-6.705,5.907-9.659,11.918-9.659,0,0,9.423-.61,10.31,7.87" transform="translate(-87.623 -9.25)"/>
        <path id="Path_3461" data-name="Path 3461" d="M205.559,50.977a3.069,3.069,0,1,1-3.069-3.071,3.069,3.069,0,0,1,3.069,3.071" transform="translate(-121.503 -29.188)"/>
        <path id="Path_3462" data-name="Path 3462" d="M68.153,69.667c-7.193,0-11.379,4.8-11.379,14.289,0,9.4,4.185,14.331,11.379,14.331,7.1,0,11.423-4.93,11.423-14.331,0-9.485-4.319-14.289-11.423-14.289m.022,22.864c-2.622,0-3.181-2.526-3.181-8.554s.56-8.554,3.181-8.554,3.181,2.526,3.181,8.554-.56,8.554-3.181,8.554" transform="translate(-34.591 -42.447)"/>
        <path id="Path_3463" data-name="Path 3463" d="M128.786,69.667c-7.193,0-11.379,4.8-11.379,14.289,0,9.4,4.185,14.331,11.379,14.331,7.1,0,11.423-4.93,11.423-14.331,0-9.485-4.319-14.289-11.423-14.289m.022,22.864c-2.622,0-3.181-2.526-3.181-8.554s.559-8.554,3.181-8.554,3.181,2.526,3.181,8.554-.559,8.554-3.181,8.554" transform="translate(-71.534 -42.447)"/>
        <path id="Path_3464" data-name="Path 3464" d="M189.418,69.667c-7.193,0-11.379,4.8-11.379,14.289,0,9.4,4.185,14.331,11.379,14.331,7.1,0,11.423-4.93,11.423-14.331,0-9.485-4.319-14.289-11.423-14.289m.022,22.864c-2.622,0-3.181-2.526-3.181-8.554s.559-8.554,3.181-8.554,3.181,2.526,3.181,8.554-.559,8.554-3.181,8.554" transform="translate(-108.476 -42.447)"/>
        <path id="Path_3465" data-name="Path 3465" d="M18.9,81.457a9.219,9.219,0,0,0-6.544-2.168,7.652,7.652,0,0,0-5.3,1.936l.593-4.42H19.384V70.256H2.361l-1.8,13,4.972,2.58a7.315,7.315,0,0,1,4.518-1.929,3.345,3.345,0,0,1,2.374.915,4.838,4.838,0,0,1,1.25,3.611,6.956,6.956,0,0,1-.158,1.546,3.069,3.069,0,0,1-3.272,2.606c-3.212,0-2.943-4-2.219-5.416l-.043-.043L0,91.267c.582,5.072,5.707,7.379,10.064,7.379a11.953,11.953,0,0,0,7.917-2.765,9.384,9.384,0,0,0,2.063-2.514,10.414,10.414,0,0,0,1.375-5.074A9.072,9.072,0,0,0,18.9,81.457" transform="translate(0 -42.806)"/>
      </g>
    </g>
  </g>
</svg>
