<svg xmlns="http://www.w3.org/2000/svg" width="52.922" height="62.555" viewBox="0 0 52.922 62.555">
  <g id="ap-logo-176-by-208" opacity="0.5">
    <g id="Group_4768" data-name="Group 4768">
      <path id="Path_3466" data-name="Path 3466" d="M0,56.024H52.922V0H0Z" fill="#fff" fill-rule="evenodd"/>
    </g>
    <g id="Group_4769" data-name="Group 4769" transform="translate(0 56.024)">
      <path id="Path_3467" data-name="Path 3467" d="M0,186.315H52.922v6.531H0Z" transform="translate(0 -186.315)" fill-rule="evenodd"/>
    </g>
    <path id="Path_3468" data-name="Path 3468" d="M19.8,49.028l-8.9,27.247h6.441l6.042-19.259,3.028,9.628H22.5l-1.565,5.5h7.211l1.3,4.134h6.625L27.177,49.028Z" transform="translate(-7.627 -34.286)" fill-rule="evenodd"/>
    <path id="Path_3469" data-name="Path 3469" d="M106.755,49.028H97.508V76.275H103.9V54.525h2.577c2.99,0,4.692,1.456,4.692,4.087,0,2.584-1.7,4.087-4.692,4.087h-.414v5.5h.689c6.9,0,10.95-3.547,10.95-9.583C117.7,52.457,113.656,49.028,106.755,49.028Z" transform="translate(-68.188 -34.286)" fill-rule="evenodd"/>
  </g>
</svg>
