<svg xmlns="http://www.w3.org/2000/svg" width="102.681" height="62.556" viewBox="0 0 102.681 62.556">
  <g id="layer1" transform="translate(-0.086 -0.053)" opacity="0.497">
    <g id="layer1-5" transform="translate(0.086 0.053)">
      <g id="g851" transform="translate(0 0)">
        <rect id="rect847" width="16.321" height="14.019" transform="translate(1.599 48.537)" fill="#333"/>
        <path id="polygon849" d="M10.853,9.246h8.339L19.519,0H0L1.6,45.234H17.92l.326-8.8H10.741V25.623h7.875l.288-8.176H10.853Z" fill="#333"/>
      </g>
      <g id="g929" transform="translate(24.796 16.905)">
        <path id="path911" d="M19.385,48.22V19.689h6.036L31.35,34.113V19.689h5.39V48.22H31.314L24.775,32.842H24.7V48.22Z" transform="translate(-19.385 -19.188)" fill="#333"/>
        <path id="path913" d="M24.359,48.22V19.689h14.48V25.45h-8.48v5.325h6.36v5.6h-6.36v6.08h8.8V48.22Z" transform="translate(-4.935 -19.188)" fill="#333"/>
        <path id="path916" d="M28.216,19.652h6.35L36.683,36.7h.074l2.265-17.047h6.016L47.191,36.7h.074l2.191-17.047h6.127L50.311,48.183H44.147l-2.191-14.7h-.074L39.8,48.183H33.526Z" transform="translate(6.275 -19.294)" fill="#333"/>
        <path id="path918" d="M34.953,39.826l5.719-.636a6.36,6.36,0,0,0,.891,3.06,2.4,2.4,0,0,0,2.117,1.232,2.524,2.524,0,0,0,1.745-.6,2.17,2.17,0,0,0,.668-1.709,3.415,3.415,0,0,0-.817-2.225,6.155,6.155,0,0,0-1.968-1.629q-1.151-.676-2.562-1.589-1.374-.954-2.562-1.947a8.061,8.061,0,0,1-1.968-2.742,9.763,9.763,0,0,1-.78-4.013,7.134,7.134,0,0,1,2.117-5.4,7.965,7.965,0,0,1,5.756-2.066,7.541,7.541,0,0,1,6.2,2.543,10.56,10.56,0,0,1,2.117,6.8h-5.5q0-.04-.149-.715-.149-.715-.186-.874t-.223-.715a1.5,1.5,0,0,0-.334-.715q-.149-.2-.408-.517a1.1,1.1,0,0,0-.631-.4,2.319,2.319,0,0,0-.78-.119,2.009,2.009,0,0,0-1.485.556,1.873,1.873,0,0,0-.52,1.391,3.34,3.34,0,0,0,1.077,2.424,12.969,12.969,0,0,0,2.674,1.947q1.56.874,3.119,1.947a8.664,8.664,0,0,1,2.636,3.02,8.908,8.908,0,0,1,1.114,4.57A7.683,7.683,0,0,1,49.7,46.661a8.84,8.84,0,0,1-6.276,2.146q-7.724,0-8.466-8.981Z" transform="translate(25.85 -19.56)" fill="#333"/>
      </g>
    </g>
  </g>
</svg>
