<svg xmlns="http://www.w3.org/2000/svg" xmlns:xlink="http://www.w3.org/1999/xlink" width="150" height="51.71" viewBox="0 0 150 51.71">
  <defs>
    <clipPath id="clip-path">
      <rect id="Rectangle_3673" data-name="Rectangle 3673" width="150" height="51.71" fill="#333"/>
    </clipPath>
  </defs>
  <g id="Group_4645" data-name="Group 4645" opacity="0.497">
    <g id="Group_4641" data-name="Group 4641" clip-path="url(#clip-path)">
      <path id="Path_3359" data-name="Path 3359" d="M48,20.447H42.438V16.2a10.64,10.64,0,1,0-21.28,0v4.244H15.6V16.2A16.2,16.2,0,1,1,48,16.2Z" transform="translate(-13.457)" fill="#c4c4c4"/>
      <path id="Path_3360" data-name="Path 3360" d="M34.778,148.542H1.9a1.9,1.9,0,0,0-1.9,1.9v11.105a18.341,18.341,0,0,0,18.341,18.341h0a18.341,18.341,0,0,0,18.341-18.341V150.446a1.9,1.9,0,0,0-1.9-1.9m-5.607,10.224L17.708,169.511a1.462,1.462,0,0,1-2,0l-6.475-6.07a1.462,1.462,0,0,1,0-2.133l1.536-1.44a1.462,1.462,0,0,1,2,0l2.939,2.755a1.462,1.462,0,0,0,2,0l7.927-7.431a1.462,1.462,0,0,1,2,0l1.536,1.44a1.462,1.462,0,0,1,0,2.133" transform="translate(0 -128.182)" fill="#333"/>
      <path id="Path_3361" data-name="Path 3361" d="M353.178,73.572a12.794,12.794,0,0,1-1.815-.848,5.369,5.369,0,0,1-1.369-1.1,4.55,4.55,0,0,1-.878-1.532,7.3,7.3,0,0,1,.208-4.82,5.317,5.317,0,0,1,1.473-1.949,6.451,6.451,0,0,1,2.291-1.19,10.44,10.44,0,0,1,3.005-.4,14.32,14.32,0,0,1,2.841.268,21.566,21.566,0,0,1,2.782.774,10.62,10.62,0,0,1-.952,3.392q-.446-.179-.908-.357a7.151,7.151,0,0,0-.982-.3,10.847,10.847,0,0,0-1.175-.193,13.357,13.357,0,0,0-1.488-.075,6.066,6.066,0,0,0-1.027.09,2.835,2.835,0,0,0-.937.327,1.857,1.857,0,0,0-.684.7,2.386,2.386,0,0,0-.268,1.205,2.147,2.147,0,0,0,.208,1,2.088,2.088,0,0,0,.565.685,3.558,3.558,0,0,0,.8.476q.446.194.893.372l1.785.684q1.13.446,2.053.922a5.546,5.546,0,0,1,1.562,1.175,4.956,4.956,0,0,1,1,1.7,7.34,7.34,0,0,1,.357,2.455,6.8,6.8,0,0,1-.55,2.767,5.952,5.952,0,0,1-1.592,2.143,7.531,7.531,0,0,1-2.574,1.4,11.245,11.245,0,0,1-3.526.506q-.982,0-1.756-.06a13.028,13.028,0,0,1-2.857-.535q-.685-.208-1.428-.506a12.5,12.5,0,0,1,.327-1.8q.237-.937.565-1.889a15.558,15.558,0,0,0,2.351.759,10.47,10.47,0,0,0,2.351.253,5.345,5.345,0,0,0,2.946-.7,2.366,2.366,0,0,0,1.071-2.127,2.524,2.524,0,0,0-.253-1.19,2.6,2.6,0,0,0-.655-.8,3.975,3.975,0,0,0-.908-.55q-.506-.223-1.041-.431Z" transform="translate(-300.507 -53.268)" fill="#333"/>
      <path id="Path_3362" data-name="Path 3362" d="M475.233,64.333h12.14a9.241,9.241,0,0,1,.178,1.815,9.548,9.548,0,0,1-.178,1.875h-7.8v4.642h6.189a10.023,10.023,0,0,1,.178,1.845,9.851,9.851,0,0,1-.178,1.875h-6.189v5.653h8a9.2,9.2,0,0,1,.179,1.815,9.5,9.5,0,0,1-.179,1.875H475.233Z" transform="translate(-410.095 -55.515)" fill="#333"/>
      <path id="Path_3363" data-name="Path 3363" d="M601.268,79.434a11.911,11.911,0,0,1,.639,1.711,12.172,12.172,0,0,1,.372,1.77,14.127,14.127,0,0,1-2.782.744,18.677,18.677,0,0,1-2.664.179,11.156,11.156,0,0,1-4.433-.818,8.833,8.833,0,0,1-3.2-2.291,9.777,9.777,0,0,1-1.949-3.5,14.222,14.222,0,0,1-.655-4.4,13.785,13.785,0,0,1,.685-4.419,10.294,10.294,0,0,1,1.978-3.526,8.931,8.931,0,0,1,3.184-2.321,10.558,10.558,0,0,1,4.3-.833,18.05,18.05,0,0,1,2.633.178,11.542,11.542,0,0,1,2.6.744,6.588,6.588,0,0,1-.357,1.741q-.3.848-.655,1.711a13.255,13.255,0,0,0-1.845-.506,10.613,10.613,0,0,0-1.9-.149,5.364,5.364,0,0,0-4.389,1.86,8.517,8.517,0,0,0-1.533,5.52q0,7.261,6.159,7.261a11.081,11.081,0,0,0,1.934-.149,12.806,12.806,0,0,0,1.875-.506" transform="translate(-506.196 -53.268)" fill="#333"/>
      <path id="Path_3364" data-name="Path 3364" d="M723.8,63.4a10.988,10.988,0,0,1,1.1-.119q.536-.029,1.1-.03c.337,0,.685.01,1.041.03a11.012,11.012,0,0,1,1.1.119V74.5a30.871,30.871,0,0,0,.134,3.109,6.626,6.626,0,0,0,.536,2.142,2.68,2.68,0,0,0,1.13,1.25,3.9,3.9,0,0,0,1.89.4,3.809,3.809,0,0,0,1.874-.4,2.707,2.707,0,0,0,1.116-1.25,6.619,6.619,0,0,0,.535-2.142,30.7,30.7,0,0,0,.134-3.109V63.4q.595-.089,1.13-.119t1.042-.03c.357,0,.719.01,1.086.03a10.994,10.994,0,0,1,1.116.119V75.419a20.443,20.443,0,0,1-.357,3.972,7.774,7.774,0,0,1-1.28,3.08,6.035,6.035,0,0,1-2.47,1.979,11.376,11.376,0,0,1-7.855,0,6.029,6.029,0,0,1-2.47-1.979,7.773,7.773,0,0,1-1.279-3.08,20.434,20.434,0,0,1-.357-3.972Z" transform="translate(-624.59 -54.58)" fill="#333"/>
      <path id="Path_3365" data-name="Path 3365" d="M871.846,62.086q1.309-.148,2.455-.253t2.544-.1a17.573,17.573,0,0,1,3.229.3,8.726,8.726,0,0,1,2.871,1.056,5.943,5.943,0,0,1,2.068,2.053,6.235,6.235,0,0,1,.789,3.288,6.746,6.746,0,0,1-.3,2.1,6.384,6.384,0,0,1-.759,1.592,6.541,6.541,0,0,1-1,1.175,7.094,7.094,0,0,1-1.011.789l-.506.327,5.207,9.046q-.6.059-1.25.119t-1.339.06a13.944,13.944,0,0,1-2.232-.179l-5.594-9.938.714-.357q.416-.208,1.011-.536A6.252,6.252,0,0,0,879.9,71.8a4.491,4.491,0,0,0,.937-1.19,3.939,3.939,0,0,0-.685-4.4,4.226,4.226,0,0,0-2.767-.878,7.272,7.272,0,0,0-1.19.089V83.48q-.536.059-1.072.1t-1.041.045q-.506,0-1.071-.03t-1.161-.119Z" transform="translate(-752.345 -53.268)" fill="#333"/>
      <path id="Path_3366" data-name="Path 3366" d="M1002.967,64.333h12.14a9.25,9.25,0,0,1,.179,1.815,9.557,9.557,0,0,1-.179,1.875h-7.8v4.642h6.189a9.977,9.977,0,0,1,.179,1.845,9.807,9.807,0,0,1-.179,1.875h-6.189v5.653h8a9.242,9.242,0,0,1,.178,1.815,9.548,9.548,0,0,1-.178,1.875h-12.349Z" transform="translate(-865.494 -55.515)" fill="#333"/>
      <path id="Path_3367" data-name="Path 3367" d="M351.92,274.325a5.869,5.869,0,0,1-.826-.386,2.45,2.45,0,0,1-.623-.5,2.075,2.075,0,0,1-.4-.7,3.32,3.32,0,0,1,.095-2.194,2.421,2.421,0,0,1,.67-.887,2.941,2.941,0,0,1,1.043-.542,4.76,4.76,0,0,1,1.368-.183,6.541,6.541,0,0,1,1.293.122,9.832,9.832,0,0,1,1.266.352,4.824,4.824,0,0,1-.433,1.544l-.413-.162a3.27,3.27,0,0,0-.447-.136,4.908,4.908,0,0,0-.535-.088,6.083,6.083,0,0,0-.677-.034,2.772,2.772,0,0,0-.467.041,1.3,1.3,0,0,0-.426.149.845.845,0,0,0-.312.319,1.083,1.083,0,0,0-.122.548.98.98,0,0,0,.095.454.95.95,0,0,0,.258.311,1.616,1.616,0,0,0,.366.217q.2.088.406.169l.813.311q.515.2.935.42a2.519,2.519,0,0,1,.711.535,2.255,2.255,0,0,1,.454.772,3.333,3.333,0,0,1,.163,1.117,3.092,3.092,0,0,1-.251,1.259,2.706,2.706,0,0,1-.724.975,3.429,3.429,0,0,1-1.171.637,5.122,5.122,0,0,1-1.6.23q-.447,0-.8-.027a5.936,5.936,0,0,1-1.3-.244q-.312-.095-.65-.23a5.718,5.718,0,0,1,.149-.819q.108-.427.258-.86a7.1,7.1,0,0,0,1.07.345,4.77,4.77,0,0,0,1.07.115,2.433,2.433,0,0,0,1.341-.318,1.077,1.077,0,0,0,.488-.968,1.149,1.149,0,0,0-.115-.542,1.186,1.186,0,0,0-.3-.366,1.808,1.808,0,0,0-.413-.251q-.23-.1-.474-.2Z" transform="translate(-301.744 -232.073)" fill="#333"/>
      <path id="Path_3368" data-name="Path 3368" d="M403.791,274.325a5.864,5.864,0,0,1-.826-.386,2.444,2.444,0,0,1-.623-.5,2.076,2.076,0,0,1-.4-.7,3.319,3.319,0,0,1,.095-2.194,2.421,2.421,0,0,1,.67-.887,2.941,2.941,0,0,1,1.043-.542,4.761,4.761,0,0,1,1.368-.183,6.544,6.544,0,0,1,1.293.122,9.846,9.846,0,0,1,1.266.352,4.825,4.825,0,0,1-.433,1.544l-.413-.162a3.269,3.269,0,0,0-.447-.136,4.9,4.9,0,0,0-.535-.088,6.084,6.084,0,0,0-.677-.034,2.769,2.769,0,0,0-.467.041,1.3,1.3,0,0,0-.426.149.844.844,0,0,0-.312.319,1.084,1.084,0,0,0-.122.548.979.979,0,0,0,.095.454.949.949,0,0,0,.257.311,1.614,1.614,0,0,0,.366.217q.2.088.406.169l.813.311q.514.2.935.42a2.517,2.517,0,0,1,.711.535,2.253,2.253,0,0,1,.454.772,3.334,3.334,0,0,1,.163,1.117,3.094,3.094,0,0,1-.251,1.259,2.707,2.707,0,0,1-.725.975,3.427,3.427,0,0,1-1.171.637,5.121,5.121,0,0,1-1.6.23q-.447,0-.8-.027a5.938,5.938,0,0,1-1.3-.244q-.312-.095-.65-.23a5.715,5.715,0,0,1,.149-.819q.108-.427.257-.86a7.1,7.1,0,0,0,1.07.345,4.77,4.77,0,0,0,1.07.115,2.434,2.434,0,0,0,1.341-.318,1.077,1.077,0,0,0,.487-.968,1.148,1.148,0,0,0-.115-.542,1.186,1.186,0,0,0-.3-.366,1.812,1.812,0,0,0-.413-.251q-.231-.1-.474-.2Z" transform="translate(-346.505 -232.073)" fill="#333"/>
      <path id="Path_3369" data-name="Path 3369" d="M459.343,269.608a6.009,6.009,0,0,1,.962-.081,6.347,6.347,0,0,1,.989.081v8.031h3.372a4.1,4.1,0,0,1,.054.44c.009.14.013.273.013.4q0,.217-.013.427a4.083,4.083,0,0,1-.054.44h-5.322Z" transform="translate(-396.383 -232.584)" fill="#333"/>
      <path id="Path_3370" data-name="Path 3370" d="M529.794,270.12h5.525a4.225,4.225,0,0,1,.081.826,4.359,4.359,0,0,1-.081.853h-3.548v2.113h2.817a4.538,4.538,0,0,1,.081.84,4.466,4.466,0,0,1-.081.853h-2.817v2.573h3.643a4.181,4.181,0,0,1,.081.826,4.322,4.322,0,0,1-.081.853h-5.62Z" transform="translate(-457.177 -233.096)" fill="#333"/>
      <path id="Path_3371" data-name="Path 3371" d="M582.255,269.608a4.21,4.21,0,0,1,.8-.081,4.556,4.556,0,0,1,.84.081l3.765,6.2v-6.2a5.7,5.7,0,0,1,.935-.081,4.007,4.007,0,0,1,.812.081v9.737a4.3,4.3,0,0,1-.785.081,4.643,4.643,0,0,1-.826-.081L584,273.157v6.189a4.77,4.77,0,0,1-.88.081,4.554,4.554,0,0,1-.867-.081Z" transform="translate(-502.447 -232.584)" fill="#333"/>
      <path id="Path_3372" data-name="Path 3372" d="M653.153,276.993a5.4,5.4,0,0,1,.291.779,5.631,5.631,0,0,1,.17.806,6.421,6.421,0,0,1-1.267.339,8.492,8.492,0,0,1-1.212.081,5.075,5.075,0,0,1-2.018-.372,4.015,4.015,0,0,1-1.456-1.043,4.439,4.439,0,0,1-.887-1.591,6.463,6.463,0,0,1-.3-2,6.284,6.284,0,0,1,.312-2.011,4.694,4.694,0,0,1,.9-1.6,4.066,4.066,0,0,1,1.449-1.056,4.808,4.808,0,0,1,1.957-.379,8.213,8.213,0,0,1,1.2.081,5.265,5.265,0,0,1,1.185.339,3,3,0,0,1-.163.792q-.135.386-.3.779a6.023,6.023,0,0,0-.84-.23,4.83,4.83,0,0,0-.867-.068,2.443,2.443,0,0,0-2,.847,3.878,3.878,0,0,0-.7,2.512q0,3.3,2.8,3.3a5.04,5.04,0,0,0,.88-.068,5.809,5.809,0,0,0,.853-.23" transform="translate(-557.866 -232.073)" fill="#333"/>
      <path id="Path_3373" data-name="Path 3373" d="M710.008,269.1q.6-.068,1.117-.115t1.158-.047a7.984,7.984,0,0,1,1.47.135,3.97,3.97,0,0,1,1.307.481,2.7,2.7,0,0,1,.941.935,2.837,2.837,0,0,1,.359,1.5,3.062,3.062,0,0,1-.136.955,2.907,2.907,0,0,1-.345.725,2.967,2.967,0,0,1-.454.535,3.208,3.208,0,0,1-.46.359l-.23.149,2.37,4.117-.569.054q-.3.027-.609.027a6.337,6.337,0,0,1-1.016-.081l-2.546-4.523.325-.163q.189-.095.461-.244a2.861,2.861,0,0,0,.521-.372,2.039,2.039,0,0,0,.426-.542,1.792,1.792,0,0,0-.311-2,1.925,1.925,0,0,0-1.26-.4,3.34,3.34,0,0,0-.542.041v8.221q-.243.027-.487.047t-.474.02q-.23,0-.487-.014t-.529-.054Z" transform="translate(-612.69 -232.073)" fill="#333"/>
      <path id="Path_3374" data-name="Path 3374" d="M764.817,275.865l-3.034-6.257a8.04,8.04,0,0,1,1.138-.081,6.6,6.6,0,0,1,1.029.081l1.923,4.415,1.9-4.415a6.432,6.432,0,0,1,1.029-.081,7.231,7.231,0,0,1,1.043.081l-3.034,6.257v3.494q-.271.041-.515.054t-.488.014q-.23,0-.481-.014a4.952,4.952,0,0,1-.508-.054Z" transform="translate(-657.368 -232.584)" fill="#333"/>
      <path id="Path_3375" data-name="Path 3375" d="M828.479,269.058q.622-.054,1.26-.088t1.286-.034a7.192,7.192,0,0,1,1.374.135,3.441,3.441,0,0,1,1.26.508,2.775,2.775,0,0,1,.914,1.036,3.665,3.665,0,0,1,.352,1.72,3.623,3.623,0,0,1-.352,1.713,2.865,2.865,0,0,1-.907,1.036,3.307,3.307,0,0,1-1.239.515,6.93,6.93,0,0,1-1.348.135c-.117,0-.228,0-.332-.007s-.2-.011-.291-.02v3.128a4.888,4.888,0,0,1-.5.054q-.244.013-.474.013t-.474-.013q-.258-.013-.528-.054Zm1.977,5.011a1.838,1.838,0,0,0,.3.027h.345a2.515,2.515,0,0,0,.663-.088,1.546,1.546,0,0,0,.576-.291,1.426,1.426,0,0,0,.4-.535,2,2,0,0,0,.149-.819,2.136,2.136,0,0,0-.149-.846,1.467,1.467,0,0,0-.4-.555,1.5,1.5,0,0,0-.576-.3,2.527,2.527,0,0,0-.663-.088c-.1,0-.192,0-.278.007s-.21.016-.372.034Z" transform="translate(-714.922 -232.074)" fill="#333"/>
      <path id="Path_3376" data-name="Path 3376" d="M884.139,271.8h-2.424a4.32,4.32,0,0,1-.081-.853,4.183,4.183,0,0,1,.081-.826h6.839a4.183,4.183,0,0,1,.081.826,4.32,4.32,0,0,1-.081.853H886.13v8.058q-.243.027-.488.047c-.162.014-.321.02-.474.02s-.319,0-.494-.013-.354-.027-.535-.054Z" transform="translate(-760.792 -233.097)" fill="#333"/>
      <path id="Path_3377" data-name="Path 3377" d="M942.1,269.608a6.168,6.168,0,0,1,.989-.081,6.423,6.423,0,0,1,1,.081v9.737a6.34,6.34,0,0,1-.988.081,6.254,6.254,0,0,1-1-.081Z" transform="translate(-812.971 -232.584)" fill="#333"/>
      <path id="Path_3378" data-name="Path 3378" d="M972.806,279a4.388,4.388,0,0,1-1.9-.379,3.532,3.532,0,0,1-1.314-1.049,4.541,4.541,0,0,1-.765-1.585,7.544,7.544,0,0,1-.25-2,7.7,7.7,0,0,1,.25-2.011,4.6,4.6,0,0,1,.765-1.6,3.509,3.509,0,0,1,1.314-1.056,4.931,4.931,0,0,1,3.792,0,3.508,3.508,0,0,1,1.314,1.056,4.6,4.6,0,0,1,.765,1.6,7.7,7.7,0,0,1,.251,2.011,7.543,7.543,0,0,1-.251,2,4.537,4.537,0,0,1-.765,1.585,3.531,3.531,0,0,1-1.314,1.049,4.386,4.386,0,0,1-1.9.379m0-1.652q2.1,0,2.1-3.359a4.962,4.962,0,0,0-.508-2.519,1.714,1.714,0,0,0-1.578-.84q-2.126,0-2.126,3.359t2.113,3.359" transform="translate(-835.821 -232.074)" fill="#333"/>
      <path id="Path_3379" data-name="Path 3379" d="M1042.193,269.608a4.212,4.212,0,0,1,.8-.081,4.564,4.564,0,0,1,.84.081l3.764,6.2v-6.2a5.7,5.7,0,0,1,.935-.081,4,4,0,0,1,.812.081v9.737a4.3,4.3,0,0,1-.785.081,4.644,4.644,0,0,1-.826-.081l-3.792-6.189v6.189a4.775,4.775,0,0,1-.881.081,4.555,4.555,0,0,1-.867-.081Z" transform="translate(-899.343 -232.584)" fill="#333"/>
    </g>
  </g>
</svg>
