<svg xmlns="http://www.w3.org/2000/svg" width="640" height="360" viewBox="0 0 640 360" role="img" aria-labelledby="title desc">
  <title id="title">AltFTool image fallback</title>
  <desc id="desc">A calm placeholder shown when an image cannot be loaded.</desc>
  <defs>
    <linearGradient id="bg" x1="0" y1="0" x2="1" y2="1">
      <stop offset="0" stop-color="#eef6ff"/>
      <stop offset="0.5" stop-color="#f8fbff"/>
      <stop offset="1" stop-color="#eef2ff"/>
    </linearGradient>
    <linearGradient id="mark" x1="0" y1="0" x2="1" y2="1">
      <stop offset="0" stop-color="#2563eb"/>
      <stop offset="1" stop-color="#14b8a6"/>
    </linearGradient>
  </defs>
  <rect width="640" height="360" rx="24" fill="url(#bg)"/>
  <rect x="1" y="1" width="638" height="358" rx="23" fill="none" stroke="#cbd5e1" stroke-width="2"/>
  <circle cx="220" cy="130" r="34" fill="#dbeafe"/>
  <path d="M142 252l85-88 58 56 39-41 174 73H142z" fill="#dbeafe"/>
  <path d="M142 252l85-88 58 56 39-41 174 73" fill="none" stroke="url(#mark)" stroke-width="12" stroke-linecap="round" stroke-linejoin="round"/>
  <g transform="translate(284 111)">
    <rect x="0" y="0" width="72" height="72" rx="18" fill="url(#mark)"/>
    <path d="M21 48L35 22h7l-14 26h-7zm26 0L33 22h7l14 26h-7z" fill="#fff"/>
  </g>
  <text x="320" y="304" text-anchor="middle" font-family="Inter, Arial, sans-serif" font-size="18" font-weight="700" fill="#334155">Image unavailable</text>
</svg>
